<?xml version="1.0" encoding="utf-8"?>
<!-- Generator: Adobe Illustrator 25.3.1, SVG Export Plug-In . SVG Version: 6.00 Build 0)  -->
<svg version="1.1" id="Layer_1" xmlns="http://www.w3.org/2000/svg" xmlns:xlink="http://www.w3.org/1999/xlink" x="0px" y="0px"
	 viewBox="0 0 980.3 865.8"  style="enable-background:new 0 0 980.3 865.8;" xml:space="preserve">
<style type="text/css">
	.st0{fill:#036D97;}
</style>
<g id="Layer_2_1_" >
	<g id="Layer_1-2">
		<path class="st0" d="M607.6,0l5.7,1.4l-7.6,28L600,28L607.6,0z"/>
		<path class="st0" d="M633.3,29.5l-15.2-4.8c-0.1,1.3,0.2,2.7,1,3.8c0.9,1,2,1.9,3.3,2.4c0.9,0.4,1.9,0.6,2.9,0.5
			c1-0.1,2-0.4,2.8-1l1.9,4.3c-2.9,1.6-6.4,1.8-9.5,0.5c-2.1-0.7-4-1.8-5.7-3.3c-1.4-1.5-2.4-3.3-2.9-5.2c-0.5-1.9-0.4-3.9,0.5-5.7
			c0.5-1.9,1.7-3.6,3.3-4.8c1.4-1.4,3.3-1.9,5.2-2.4c1.9-0.3,3.9-0.2,5.7,0.5c1.9,0.4,3.6,1.4,4.8,2.9c1.4,1.2,2.3,2.9,2.4,4.8
			c0.5,2.1,0.4,4.2-0.5,6.2C633.8,27.6,633.8,28.5,633.3,29.5z M621.9,18.5c-1.1,0.6-2,1.5-2.9,2.4l10,3.3c0.1-1.3-0.1-2.6-0.5-3.8
			c-0.6-1.1-1.6-2-2.8-2.4C624.4,18,623.1,18.1,621.9,18.5z"/>
		<path class="st0" d="M641.4,19.5l5.7,2.4l-7.6,20l-5.7-2.4L641.4,19.5z M643.3,15.7c-0.5-0.9-0.5-2,0-2.8c0.4-0.8,1.1-1.5,1.9-1.9
			c0.9-0.5,2-0.5,2.9,0c1,0.4,1.8,1,2.4,1.9c0.5,0.7,0.5,1.7,0,2.4c-0.4,0.9-1.1,1.5-1.9,1.9c-0.9,0.5-2,0.5-2.8,0
			C644.6,17.3,643.6,16.7,643.3,15.7z"/>
		<path class="st0" d="M676.5,24.7l-11.4,26.6l-5.2-2.3l1-2.4c-1.9,0.9-4.3,0.9-7.1,0c-1.7-0.7-3.2-1.9-4.3-3.3
			c-1.1-1.5-1.8-3.3-1.9-5.2c-0.1-2,0.2-3.9,1-5.7c1-1.9,1.9-3.8,3.3-4.8c1.5-1.1,3.3-1.8,5.2-1.9c1.9-0.2,3.9,0.2,5.7,1
			c2.4,1,4.3,2.9,4.8,4.8l3.8-9.5L676.5,24.7z M660.4,42.8c1.4-0.6,2.5-1.8,2.8-3.3c0.5-1.4,1-3.3,0.5-4.8c-0.4-1.4-1.5-2.4-2.9-2.9
			c-1.4-0.5-2.9-0.5-4.3,0c-1.4,0.6-2.5,1.8-2.9,3.3c-0.5,1.4-1,3.3-0.5,4.8c0.4,1.4,1.5,2.4,2.8,2.8
			C657.5,43.3,659,43.3,660.4,42.8z"/>
		<path class="st0" d="M691.8,55.2L677.5,48c-0.5,1.4,0,2.4,0.5,3.8c0.7,1.2,1.7,2.2,2.8,2.8c0.9,0.5,1.8,0.9,2.8,1
			c1,0.1,2-0.1,2.9-0.5l1.5,4.7c-2.8,1-5.7,1-9.5-1c-2.1-1-3.8-2.5-5.2-4.3c-1.3-1.4-2-3.3-1.9-5.2c0.1-1.9,0.4-3.9,1-5.7
			c0.9-1.7,2.2-3.2,3.8-4.3c1.5-1,3.3-1.5,5.1-1.5c2,0,3.9,0.5,5.7,1.4c1.7,0.9,3.2,2.2,4.3,3.8c1.1,1.5,1.8,3.3,1.9,5.2
			c0,2-0.5,3.9-1.4,5.7C692.7,53.7,692.2,54.2,691.8,55.2z M682.2,42.8c-1,0.5-2.4,1-2.8,1.9l9.5,4.8c0.5-1.2,0.5-2.6,0-3.8
			c-0.6-1.1-1.4-2-2.4-2.8C684.6,42.3,683.2,42.3,682.2,42.8z"/>
		<path class="st0" d="M709.3,51.3c1.5,0,3,0.5,4.3,1.4l-2.9,4.8c-0.5-0.5-1-0.5-1-1c-1.3-0.8-2.8-1.1-4.3-1c-1.4,0-2.4,1.4-3.3,3.3
			l-4.8,8.6l-5.2-2.8l10.5-18.5l5.2,2.9l-1.4,2.4L709.3,51.3z"/>
		<path class="st0" d="M707.5,74.2c-1-1.4-1.9-2.4-2.4-3.3l4.3-2.8c0.5,1.1,1.1,2,1.9,2.8c0.8,0.9,1.8,1.7,2.8,2.4
			c2.4,1.4,3.8,1.4,4.3,0.5c0.5-0.5,0.5-1,0-1.9c-0.5-0.5-1.4-1.4-2.4-2.4c-1.4-1-2.4-2.4-3.3-2.8c-0.9-0.8-1.5-2.1-1.4-3.3
			c-0.1-1.3,0.2-2.7,1-3.8c0.7-1,1.7-1.9,2.8-2.4c1.4-0.4,2.8-0.6,4.3-0.5c1.7,0.1,3.4,0.8,4.8,1.9c1.2,0.8,2.3,1.8,3.3,2.8
			c1.1,0.9,1.9,2,2.4,3.3l-4.3,2.8c-1-1.9-2.5-3.5-4.3-4.8c-0.9-0.5-1.8-0.9-2.8-1c-1,0-1.4,0-1.4,0.5c-0.5,0.5-0.5,1,0,1.9l2.4,2.4
			c1.4,1,2.4,2.4,3.3,2.8c0.8,0.7,1.4,1.8,1.4,2.9c0.1,1.3-0.3,2.7-1,3.8c-0.6,1.1-1.6,2-2.9,2.4c-1.4,0.5-2.9,0.5-4.3,0
			c-1.8-0.4-3.6-1.1-5.2-1.9C710.3,76.6,708.9,75.1,707.5,74.2z"/>
		<path class="st0" d="M726.9,85.6c-0.9-1.8-1.4-3.7-1.4-5.7c0-1.9,1-3.8,1.9-5.7c1.2-1.5,2.6-2.8,4.3-3.8c1.8-0.8,3.8-1.1,5.7-1
			c2,0.4,4,1.2,5.7,2.4c1.9,1.4,3.3,2.8,3.8,4.3c0.9,1.6,1,3.5,0.5,5.2l-5.2-0.5c0-2.4-0.5-3.8-2.4-5.2c-1.2-1-2.8-1.4-4.3-1
			c-1.5,0.3-2.9,1.2-3.8,2.5c-1,1.2-1.4,2.8-1,4.3c0.3,1.5,1.2,2.9,2.4,3.8c1.6,1.3,3.9,1.5,5.7,0.5l2.4,4.8c-1.5,1.1-3.4,1.4-5.2,1
			c-2.1-0.2-4.1-1-5.7-2.4C729.3,89.4,727.9,87.5,726.9,85.6z"/>
		<path class="st0" d="M768.3,94.1c0.5,2.4-0.5,4.8-2.4,7.1l-7.6,9.5l-4.8-3.8l7.1-8.6c0.9-1.1,1.4-2.4,1.4-3.8
			c0-1.4-0.5-1.9-1.9-2.8s-2.4-1.4-3.8-1c-1.4,0-2.4,1-3.8,2.4l-6.6,8.1l-4.8-3.8l18.1-22.8l4.7,3.8l-6.2,8.1
			c1.1-0.1,2.3,0.1,3.3,0.5c1.2,0.5,2.3,1.1,3.3,1.9C766.9,90.3,768.3,92.2,768.3,94.1z"/>
		<path class="st0" d="M787.3,110.8c0.5,2.4-0.5,4.8-2.8,7.1l-8.1,9l-4.3-3.8l1.9-1.9c-2.4,0.5-4.3,0-6.7-1.9
			c-1.1-0.9-1.9-2-2.4-3.3c-0.4-1.1-0.5-2.2-0.5-3.3c0-1.1,0.5-2.2,1.4-2.8c1.2-1.3,3-2,4.8-1.9c1.9,0,3.8,1.4,6.2,3.3l3.8,3.3
			c1-0.8,1.4-2.1,1-3.3c-0.3-1.3-0.9-2.5-1.9-3.3c-0.8-0.8-1.8-1.4-2.8-1.9c-0.9-0.5-1.8-0.9-2.8-1l1.4-4.8c1.5,0,3,0.5,4.3,1.4
			c1.4,0.9,2.9,1.9,4.3,2.9C785.7,106.3,786.8,108.4,787.3,110.8z M773.5,118.4c1,0.1,2-0.1,2.8-0.5l1.4-1.4l-3.3-2.8
			c-1.9-1.9-3.3-1.9-4.3-0.5c-0.5,0.5-1,1.4-0.5,1.9c0,1,0.5,1.4,1.4,2.4C772,117.6,772.8,117.9,773.5,118.4z"/>
		<path class="st0" d="M806.8,128.8c0.5,1.7,0.5,3.5,0,5.2c-0.6,2-1.7,3.9-3.3,5.2c-1.5,1.4-3.3,2.4-5.2,2.9c-1.7,0.5-3.5,0.5-5.2,0
			c-1.8-0.6-3.4-1.6-4.8-2.9c-1.8-1.6-2.8-3.8-2.8-6.2l-7.1,7.1L774,136l20.4-20.4l4.3,4.3l-1.9,1.9c2.5,0,4.9,1,6.7,2.8
			C805.2,125.4,806.4,127,806.8,128.8z M795.4,136.9c1.6,0,3.2-0.7,4.3-1.9c1.3-1,2-2.6,1.9-4.3c0-1.4-0.5-2.8-1.4-3.8
			c-1-1-2.4-1.9-3.8-1.4c-1.6,0-3.2,0.7-4.3,1.9c-1.3,1-2,2.6-1.9,4.3c-0.2,2.7,1.9,5.1,4.6,5.2C795,136.9,795.2,136.9,795.4,136.9z
			"/>
		<path class="st0" d="M912.8,320.9c-1,1.9-2.8,3.3-6.2,4.3l-11.4,3.3l-1.9-5.7l10.9-3.3c1.4-0.5,2.8-1,3.3-1.9
			c0.4-1.1,0.6-2.2,0.5-3.3c-0.5-1.4-1-2.4-2.4-2.9c-1-0.5-2.4-0.5-4.3,0l-10,2.9l-1.9-5.7l10.9-3.3c3.3-1,4.3-2.9,3.8-5.2
			c-0.5-1.4-1-2.4-2.4-2.9c-1-0.5-2.4-0.5-4.3,0l-10,2.9l-1.9-5.7l20.5-6.2l1.9,5.7l-2.4,0.5c1.1,0.7,2,1.5,2.9,2.4
			c0.9,0.9,1.6,2.1,1.9,3.3c0.4,1.4,0.5,2.8,0.5,4.3c0,1.4-1,2.4-1.4,3.3c1.3,0.5,2.4,1.3,3.3,2.4c0.9,1.1,1.6,2.4,1.9,3.8
			C913.8,316.6,913.8,318.5,912.8,320.9z"/>
		<path class="st0" d="M918.1,345.2c-1,1.9-3.3,3.3-6.2,4.3l-11.9,2.4l-1.4-5.7l2.4-0.5c-2.4-1-3.8-2.4-4.3-5.7
			c-0.5-1.4-0.5-2.9,0-4.3c0.4-1.1,0.9-2.3,1.4-3.3c0.7-0.9,1.8-1.4,2.9-1.4c1.9-0.5,3.9,0,5.2,1.4c1.4,1.4,2.4,3.3,3.3,6.2l1,4.8
			c1.4-0.5,2.4-1,2.8-1.9c0.4-1.2,0.6-2.5,0.5-3.8c-0.1-1.2-0.6-2.4-1.4-3.3c-0.5-0.9-1.2-1.7-1.9-2.4l3.8-2.9
			c1.1,1.2,2,2.5,2.8,3.8c0.9,1.5,1.6,3.1,1.9,4.8C919.5,340.1,919.2,342.8,918.1,345.2z M902.8,343.3c0.7,0.6,1.5,1.1,2.4,1.4
			l1.9-0.5l-1-4.3c-0.5-2.4-1.4-3.3-3.3-3.3c-0.7-0.1-1.3,0.4-1.4,1.1c0,0.1,0,0.2,0,0.4c-0.5,0.5-0.5,1.4,0,2.9
			C901.6,341.8,902.1,342.7,902.8,343.3z"/>
		<path class="st0" d="M922.8,372.7c-1.4,1.9-3.3,2.9-6.7,3.3l-11.9,1.9l-1-6.2l10.9-1.9c1.2-0.3,2.3-0.8,3.3-1.4c0.7-1,1-2.1,1-3.3
			c0-1.4-0.7-2.6-1.9-3.3c-1-1-2.4-1-4.3-1l-10.5,1.4l-0.9-6.2l20.9-3.3l1,5.7l-2.4,0.5c1.1,0.6,2,1.6,2.4,2.9
			c0.6,1.2,1,2.5,1.4,3.8C924.5,368.1,923.9,370.5,922.8,372.7z"/>
		<path class="st0" d="M925.2,397.5c-1.4,1.9-3.8,2.9-6.7,3.3l-11.9,1l-0.5-5.7h2.8c-1.9-1-3.3-2.9-3.3-6.2
			c-0.1-1.4,0.1-2.9,0.5-4.3c0.5-1.4,1-2.4,1.9-2.9c1-1,1.9-1,3.3-1.4c1.9,0,3.8,0.5,4.8,1.9c1.2,2,2,4.3,2.4,6.7l0.5,4.8
			c1.2,0.1,2.3-0.4,2.9-1.4c0.7-1.2,1-2.5,1-3.8c-0.1-1.2-0.5-2.3-1-3.3c-0.5-1.1-1.1-2-1.9-2.9l4.3-2.4c1,1,1.4,2.4,2.4,3.8
			c0.6,1.5,0.9,3.1,1,4.8C927.1,393.2,926.6,395.6,925.2,397.5z M910,393.7c0.5,0.9,1.4,1.4,2.4,1.4h2.4l-0.5-4.3
			c0-2.4-1-3.8-2.8-3.3c-0.7,0-1.4,0.4-1.9,1c-0.4,0.7-0.6,1.6-0.5,2.4C909.1,391.8,909.4,392.8,910,393.7z"/>
		<path class="st0" d="M928.5,428.8l-17.6,0.5c-3.8,0-6.7-1-8.6-2.9c-1.9-1.9-2.9-4.8-2.8-8.5c-0.1-1.9,0.1-3.8,0.5-5.7
			c0.3-1.7,1-3.3,1.9-4.8l4.3,2.4c-0.5,1-1.4,1.9-1.4,3.3c-0.4,1.4-0.5,2.8-0.5,4.3c0,1.9,0.5,3.8,1.4,4.8c1.2,1,2.7,1.5,4.3,1.4h1
			c-1.9-1.4-2.8-3.8-2.8-6.6c0-1.8,0.4-3.5,1-5.2c0.8-1.5,2-2.8,3.3-3.8c3.2-1.9,7.2-1.9,10.5,0c1.5,1,2.8,2.3,3.8,3.8
			c1,1.6,1.5,3.4,1.4,5.2c0.1,2.7-1,5.2-2.8,7.1h2.8L928.5,428.8z M914.7,421.2c2,2.2,5.4,2.4,7.6,0.4s2.4-5.4,0.4-7.6
			c-1.1-1.2-2.6-1.8-4.2-1.8c-1.5-0.1-3,0.6-3.8,1.9c-1,1.2-1.5,2.7-1.4,4.3C912.8,418.9,913.8,420.3,914.7,421.2z"/>
		<path class="st0" d="M915.2,455.5l0.5-16.2c-1.3,0.3-2.4,1-3.3,1.9c-1,1-1.5,2.4-1.4,3.8c-0.1,1,0.1,2,0.5,2.9
			c0.4,0.9,0.8,1.7,1.4,2.4l-3.8,3.3c-2.4-1.9-3.3-5.2-3.3-9c0-2.1,0.5-4.3,1.4-6.2c0.9-1.7,2.2-3.2,3.8-4.3
			c1.8-0.9,3.7-1.4,5.7-1.4c2.1,0,4.1,0.6,5.7,1.9c1.6,1.1,2.9,2.5,3.8,4.3c1.9,3.6,1.9,7.8,0,11.4c-1,1.5-2.3,2.8-3.8,3.8
			c-1.8,0.9-3.7,1.4-5.7,1.4L915.2,455.5z M922.8,441.2c-0.9-0.9-2.1-1.6-3.3-1.9l-0.5,10.5c2.6-0.1,4.7-2.2,4.8-4.8
			C923.7,443.7,923.4,442.4,922.8,441.2z"/>
		<path class="st0" d="M921.9,494c-2.1,1.5-4.7,2-7.1,1.4l-11.9-1.4l0.5-6.2l10.9,1.4c1.9,0,2.8,0,3.8-0.5c1-0.6,1.6-1.7,1.4-2.9
			c0-1.4,0-2.9-1-3.3c-1.2-0.7-2.5-1.4-3.8-1.9l-10.5-1.4l0.5-6.2l10.9,1.4c3.3,0.5,5.2-1,5.2-3.3c0-1.4,0-2.4-1-3.3
			c-1.1-0.9-2.4-1.6-3.8-1.9l-10.4-1.5l0.5-6.2l20.9,2.4l-0.5,5.7l-2.4-0.5c0.9,0.9,1.6,2.1,1.9,3.3c0.4,1.2,0.6,2.5,0.5,3.8
			c0,1.4-0.5,2.8-1.4,3.8c-0.8,0.9-1.8,1.7-2.9,2.4c1,1,1.8,2.1,2.4,3.3c0.4,1.4,0.6,2.8,0.5,4.3C925,489.6,923.8,492.1,921.9,494z"
			/>
		<path class="st0" d="M906.2,521.1l2.8-15.7c-1.3,0-2.5,0.5-3.3,1.4c-0.9,1.1-1.6,2.4-1.9,3.8v2.9c0.1,1,0.5,2,1,2.8l-4.3,2.4
			c-1.9-2.4-2.4-5.7-1.9-9c0.5-2.2,1.3-4.2,2.4-6.2c1-1.8,2.8-3,4.8-3.3c1.8-0.6,3.8-0.8,5.7-0.5c1.9,0.5,3.6,1.3,5.2,2.4
			c1.4,1.3,2.4,2.9,2.8,4.8c0.4,1.9,0.5,3.8,0.5,5.7c-0.5,1.9-1,3.8-2.4,5.2c-1.4,1.4-3,2.5-4.8,3.3c-2,0.6-4.1,0.8-6.2,0.5
			C907.6,521.5,907.1,521.5,906.2,521.1z M915.7,508.7c-0.6-1.1-1.6-2-2.9-2.4l-1.9,10.5c1.2,0,2.3-0.4,3.3-1
			c0.9-0.9,1.6-2.1,1.9-3.3C916.2,510.6,916.2,509.7,915.7,508.7L915.7,508.7z"/>
		<path class="st0" d="M910.5,546.8c-2.4,1.2-5.1,1.3-7.6,0.5l-11.9-2.9l1.4-6.2l10.9,2.8c1.2,0.5,2.6,0.5,3.8,0
			c1-0.5,1.4-1.4,1.9-2.8c0.3-1.3,0.2-2.6-0.5-3.8c-0.9-1.3-2.3-2.1-3.8-2.4l-10-2.4l1.4-6.2l20.4,5.2l-1.4,5.7l-2.4-0.5
			c0.5,1,1,2.4,1.4,3.3c0.1,1.3-0.1,2.6-0.5,3.8C913.8,543.9,912.4,545.3,910.5,546.8z"/>
		<path class="st0" d="M886.7,562.4c-0.4-0.7-0.6-1.6-0.5-2.4c-0.1-1,0.1-2,0.5-2.8c1-2.4,1.9-4.3,3.8-5.2c1.9-0.9,4.1-1.1,6.2-0.5
			l8.1,2.4l1-3.3l4.2,1.4l-1,3.3l4.8,1.4l-1.9,5.7l-4.7-1.5l-1.4,5.2l-4.3-1.4l1.4-5.2l-8.1-2.4c-0.7-0.5-1.7-0.5-2.4,0
			c-1,0.5-1,1-1.4,1.4c-0.5,0.7-0.5,1.7,0,2.4L886.7,562.4z"/>
		<path class="st0" d="M929.5,300c-0.1-1.6,0.1-3.2,0.5-4.8l5.2,1c-0.5,1-0.5,2.4-0.5,4.3c-0.1,1.4,0.1,2.9,0.5,4.3
			c1,2.9,1.9,3.8,3.3,3.3c0.5,0,1-0.5,1-1.4c0-1.3-0.1-2.6-0.5-3.8c-0.4-1.6-0.5-3.2-0.5-4.8c0.1-1.3,0.4-2.6,1-3.8
			c0.8-1.2,2-2,3.3-2.4c1.4-0.5,2.9-0.5,4.3,0c1.4,0.5,2.4,1.4,3.8,2.9c1.1,1.6,1.9,3.4,2.4,5.2c0.6,1.5,0.9,3.1,1,4.8
			c0.1,1.4-0.1,2.9-0.5,4.3l-5.2-1c0.5-2.4,0.5-4.8,0-7.1c-0.3-1-0.8-2-1.4-2.9c-0.5-0.5-1-1-1.9-0.5c-0.5,0-1,0.5-1,1.4v3.8
			c0,1.9,0.5,3.3,0.5,4.8c-0.1,1.3-0.4,2.6-1,3.8c-0.8,1.2-2,2-3.3,2.4c-1.4,0.5-2.9,0.5-4.3,0c-1.4-0.5-2.6-1.5-3.3-2.9
			c-1.1-1.6-1.9-3.4-2.4-5.2C929.7,304,929.3,302,929.5,300z"/>
		<path class="st0" d="M939,334.7c-0.5-0.5-1-1.4-1.4-1.9c-0.5-0.9-0.9-1.8-1-2.9c-0.5-2.9-0.5-4.8,0.5-6.6s2.8-2.9,5.7-3.8l9.5-2.4
			l-1-3.3l5.2-1l1,3.3l5.7-1.4l1.4,6.6l-5.6,1.5l1.4,5.7l-5.2,1l-1.4-5.7l-9,2.4c-1,0-1.4,0.5-1.9,1.4c-0.4,0.7-0.6,1.6-0.5,2.4
			c0.4,0.9,0.9,1.7,1.4,2.4L939,334.7z"/>
		<path class="st0" d="M962.8,344.2c0.8,1.3,1.5,2.8,1.9,4.3l-6.2,1V348c-0.5-1.9-1-3.3-2.4-4.3s-2.8-1-5.2-0.5l-10.9,1.9l-1.4-6.7
			l22.8-4.3l1.4,6.2l-2.9,0.5C961,341.9,961.9,343,962.8,344.2z"/>
		<path class="st0" d="M965.1,371.3c-1.4,2.4-3.8,3.3-7.1,3.8l-13.3,1.9l-1-6.2l2.8-0.5c-2.4-1-3.8-3.3-4.3-6.6
			c-0.3-1.6-0.2-3.3,0.5-4.8c0.3-1.3,1-2.4,1.9-3.3c0.9-0.9,2.1-1.5,3.4-1.4c2-0.3,3.9,0.4,5.2,1.9c1.4,1.4,2.4,3.8,2.8,7.1l1,5.2
			c1.4,0,2.4-1,3.3-1.9c0.7-1.3,0.8-2.8,0.5-4.3c0-1.2-0.4-2.3-1-3.3c-0.5-1-1.4-1.9-1.9-2.9l4.3-2.9c1.2,1.3,2.1,2.7,2.8,4.3
			c0.9,1.6,1.4,3.4,1.4,5.2C967,366.6,966.6,369.4,965.1,371.3z M948.5,368c0.5,0.9,1.4,1.4,2.4,1.4l2.4-0.5l-0.5-4.8
			c-0.5-2.9-1.4-3.8-3.3-3.8c-1,0-1.4,0.5-1.9,1.4c-0.4,0.9-0.5,1.9-0.5,2.9C947.5,365.8,947.9,366.9,948.5,368z"/>
		<path class="st0" d="M948,397.9c-0.6-0.7-1.1-1.5-1.4-2.4c-0.4-0.9-0.6-1.9-0.5-2.9c-0.5-2.9,0.5-4.8,1.4-6.7
			c1.7-1.6,3.9-2.6,6.2-2.9l9.5-1l-0.5-3.8l5.3-0.4l0.5,3.8l5.7-0.5l0.5,6.7l-5.7,0.5l0.5,5.7l-5.2,0.5l-0.5-5.7l-9.5,1
			c-0.9,0-1.7,0.4-2.4,1c-0.4,0.7-0.6,1.5-0.5,2.4c0.1,1,0.4,2,1,2.9L948,397.9z"/>
		<path class="st0" d="M957.5,423.6L957,406c-1.4,0.3-2.6,1.2-3.3,2.4c-0.8,1.3-1.1,2.8-1,4.3c0,1.4,0.5,2.4,0.5,3.3
			c0.4,1,1,1.8,1.9,2.4l-3.8,3.8c-2.4-1.9-3.8-5.2-4.3-9.5c0-2.5,0.4-4.9,1.4-7.1c0.9-2,2.4-3.7,4.3-4.8c1.9-1.1,4-1.8,6.2-1.9
			c2.1,0,4.3,0.5,6.2,1.4c1.9,0.9,3.4,2.4,4.3,4.3c1.1,1.9,1.8,4,1.9,6.2c0,2.1-0.5,4.3-1.4,6.2c-0.9,1.7-2.2,3.2-3.8,4.3
			c-1.9,1.1-4,1.8-6.2,1.9C959.4,423.6,959,423.6,957.5,423.6z M964.7,407.4c-1-1-2.4-1.7-3.8-1.9l0.5,11.4c1.3-0.3,2.4-1,3.3-1.9
			C965.9,412.7,965.9,409.8,964.7,407.4z"/>
		<path class="st0" d="M970.8,453.1l-19.5-0.5c-4.3,0-7.6-1.4-9.5-3.3c-1.9-2.4-2.9-5.7-2.9-10c0-2.1,0.4-4.2,1-6.2
			c0.4-1.8,1.2-3.4,2.4-4.8l4.8,2.9c-0.9,1.1-1.6,2.4-1.9,3.8c-0.5,1.4-0.9,2.8-1,4.3c0,2.4,0.5,4.3,1.4,5.2c1.2,1.3,3,2,4.8,1.9h1
			c-2-2-3-4.8-2.8-7.6c0-2,0.5-4,1.4-5.7c0.9-1.9,2.4-3.4,4.3-4.3c1.8-0.9,3.7-1.4,5.7-1.4c1.9,0,4.3,0.5,5.7,1.9
			c1.7,0.9,3.1,2.5,3.8,4.3c0.9,1.8,1.4,3.7,1.4,5.7c0,2.9-1.2,5.6-3.3,7.6h2.8L970.8,453.1z M955.6,444.5c1.1,1.2,2.7,1.9,4.3,1.9
			c1.5,0,3.1-0.5,4.3-1.4c1.4-1,1.4-2.4,1.9-4.3c0.1-1.6-0.4-3.1-1.4-4.3c-1.1-1.2-2.7-1.9-4.3-1.9c-1.6,0-3.1,0.5-4.3,1.5
			c-1.4,1-1.4,2.4-1.9,4.3C954.2,441.8,954.7,443.3,955.6,444.5L955.6,444.5z"/>
		<path class="st0" d="M969.9,460.2l-0.5,6.7l-23.3-1.4l0.5-6.7L969.9,460.2z M974.2,461.2c0.8-0.7,1.8-1.1,2.8-1
			c1,0,1.9,0.5,2.4,1.4c0.6,1,1,2.2,1,3.3c0.1,1.2-0.4,2.3-1.4,2.9c-1,1-1.4,1-2.8,1c-1.1-0.1-2.1-0.6-2.9-1.4c-0.6-1-1-2.2-1-3.3
			C972.3,462.6,973.7,461.6,974.2,461.2L974.2,461.2z"/>
		<path class="st0" d="M953.2,494.9l1.9-17.6c-1.5,0.1-2.8,0.8-3.8,1.9c-1,1-1.4,2.4-1.9,4.3v3.3l1.4,2.9l-4.3,3.3
			c-2.4-2.4-3.3-5.7-2.8-10c0.5-2.4,1-4.8,2.4-6.6c1.2-1.8,2.9-3.3,4.8-4.3c1.9-1,3.8-1,6.2-1c2.4,0.5,4.3,1,5.7,2.4
			c1.7,1.2,3,2.9,3.8,4.8c1,1.9,1,4.3,1,6.6c-0.3,2.2-1.1,4.3-2.4,6.2c-1,1.9-2.8,2.9-4.8,3.8s-4.3,1-6.7,1
			C954.7,495.4,954.2,495.4,953.2,494.9z M962.2,480.2c-0.9-1.1-2-1.9-3.3-2.4l-1.4,11.4c1.4,0,2.8-0.5,3.8-1.4c1-1,1.7-2.4,1.9-3.8
			C963.2,482.6,963.2,481.1,962.2,480.2L962.2,480.2z"/>
		<path class="st0" d="M946.6,530.1l3.3-17.1c-1.4,0-2.8,0.5-3.8,1.4c-1.2,1.1-1.9,2.7-1.9,4.3c0,1-0.5,2.4,0,3.3c0.1,1,0.4,2,1,2.8
			l-4.3,2.8c-2.1-2.9-2.8-6.5-1.9-10c0.5-2.4,1.4-4.7,2.8-6.7c1.3-1.8,3.1-3.1,5.2-3.8c1.9-0.9,4.1-1,6.2-0.5
			c2.1,0.4,4.1,1.4,5.7,2.9c1.5,1.4,2.7,3.2,3.3,5.2c0.6,2.2,0.8,4.4,0.5,6.7c-0.4,2-1.2,4-2.4,5.7c-1.4,1.4-2.9,2.8-4.8,3.3
			c-2.2,0.6-4.4,0.8-6.7,0.5C948.5,530.6,948,530.6,946.6,530.1z M957.1,516.3c-0.8-1.2-2-2-3.3-2.4l-2.4,11.4
			c1.4,0,2.8-0.5,3.8-1.4c1-1,1.9-1.9,1.9-3.3C957.8,519.3,957.7,517.7,957.1,516.3L957.1,516.3z"/>
		<path class="st0" d="M951.3,558.2c-1.9,1.4-4.8,1.4-8.1,0.5l-12.8-3.3l1.9-6.7l11.9,2.8c1.9,0.5,3.3,0.5,4.3,0
			c1.1-0.6,2-1.6,2.4-2.8c0.6-1.4,0.4-3-0.5-4.3c-1-1.4-2.4-1.9-4.3-2.8l-10.9-2.8l1.9-6.7l22.3,5.7l-1.4,6.2l-2.8-0.5
			c1,1,1,2.4,1.4,3.8c0.1,1.4-0.1,2.9-0.5,4.3C954.7,554.8,953.2,557.2,951.3,558.2z"/>
		<path class="st0" d="M563.4,834.4l4.3,27.6l-6.7,1l-1.9-11.4l-12.8,1.9l1.9,11.4l-6.7,1l-4.3-27.6l6.7-1l1.4,10.9l12.8-1.9
			l-1.4-10.9L563.4,834.4z"/>
		<path class="st0" d="M592.4,856.7l-7.1-6.7h-0.5l-5.7,1.4l1.9,7.6l-6.2,1.4l-6.2-27.5l11.9-2.8c2.2-0.5,4.5-0.5,6.7,0
			c1.8,0.4,3.4,1.2,4.8,2.4c1.4,1.3,2.4,2.9,2.8,4.8c0.6,1.9,0.4,3.9-0.5,5.7c-0.5,1.8-1.7,3.3-3.3,4.3l8.1,7.6L592.4,856.7z
			 M586.2,836.3c-1-0.5-2.8-0.5-4.8-0.5l-5.2,1l1.9,9.5l5.2-1c1.9-0.5,3.3-1,4.3-2.4c1-1,1-2.4,0.5-3.8
			C588,838,587.3,836.9,586.2,836.3z"/>
		<path class="st0" d="M641.4,821.1c2.3,1.2,4,3.2,4.8,5.7l4.3,11.4l-5.7,1.9l-3.8-10.9c-0.4-1.4-1.2-2.5-2.4-3.3
			c-1.1-0.5-2.3-0.5-3.3,0c-1.2,0.4-2.3,1.2-2.8,2.4c-0.5,1.4-0.5,2.9,0,4.3l3.8,10l-5.7,1.9l-3.8-10.9c-1-3.3-2.8-4.3-5.7-3.3
			c-1.2,0.4-2.3,1.2-2.8,2.4c-0.5,1.4-0.5,2.9,0,4.3l3.8,10l-5.7,1.9l-7.2-20.5l5.7-1.9l1,2.4c0.5-1.1,1.1-2,1.9-2.8
			c0.9-0.9,2.1-1.6,3.3-1.9c1.4-0.4,2.8-0.6,4.3-0.5c1.4,0,2.7,0.6,3.8,1.4c0.5-1.4,1.4-2.4,2.4-3.8c0.9-1.2,2.3-2.1,3.8-2.4
			C637.1,820.1,639.5,820.1,641.4,821.1z"/>
		<path class="st0" d="M663.7,812c2.6,0.9,4.6,3,5.2,5.7l4.8,11.4l-5.2,2.4l-1-2.4c-0.4,2.5-2.3,4.6-4.8,5.2c-1.4,0.6-2.8,0.9-4.3,1
			c-1.2,0-2.3-0.4-3.3-1c-1.1-0.6-2-1.6-2.4-2.8c-1-1.6-1-3.6,0-5.2c1.4-2,3.4-3.5,5.7-4.3l4.8-1.9c-0.4-1.1-1.3-2-2.4-2.4
			c-1-0.5-2.4,0-3.8,0.5c-1.1,0.5-2,1.1-2.8,1.9c-0.8,0.7-1.4,1.5-1.9,2.4l-3.8-3.3c0.9-1.3,2-2.5,3.3-3.3l4.3-2.8
			C659,811.6,661.3,811.1,663.7,812z M664.7,827.7c0.5-0.9,0.9-1.8,1-2.8l-1-1.9l-3.8,1.9c-2.4,1-3.3,2.4-2.4,3.8
			c0.5,1,1,1.4,1.4,1.4c1,0,1.9-0.2,2.9-0.5C663.2,829.2,664.2,828.7,664.7,827.7L664.7,827.7z"/>
		<path class="st0" d="M688.4,800.2c2.4,0.5,3.8,2.4,5.2,5.2l5.7,10.9l-5.7,2.8l-5.2-10c-0.7-1.2-1.7-2.2-2.8-2.8
			c-1.1-0.6-2.4-0.4-3.3,0.5c-1.3,0.6-2.3,1.6-2.8,2.8c-0.5,1.4,0,2.9,0.5,4.8l4.8,9.5l-5.7,2.8l-9.5-19.5l5.2-2.8l1,2.4
			c0.5-1.2,1.1-2.3,1.9-3.3c0.9-1,2-1.9,3.3-2.4C684.2,799.7,686,799.2,688.4,800.2z"/>
		<path class="st0" d="M709.3,787.8c2.4,0.5,4.3,1.9,6.2,4.8l6.2,10.5l-5.2,2.8l-1.4-2.4c0,2.4-1.4,4.3-4.3,5.7
			c-1.2,0.9-2.7,1.4-4.3,1.4c-1.3,0.1-2.6-0.1-3.8-0.5c-1-0.5-1.8-1.4-2.4-2.4c-0.9-1.6-1-3.5-0.5-5.2c1-1.9,2.4-3.3,5.2-5.2
			l4.3-2.4c-0.5-1.1-1.6-1.9-2.8-1.9c-1.3-0.1-2.7,0.3-3.8,1c-1.1,0.6-2,1.4-2.8,2.4c-0.8,0.8-1.4,1.8-1.9,2.9l-4.3-2.9
			c0.5-1.4,1.4-2.4,2.8-3.8c1-1.4,2.3-2.5,3.8-3.3C704.6,788.3,707,787.3,709.3,787.8z M712.2,803.5c0.4-0.9,0.6-1.9,0.5-2.8l-1-1.9
			l-3.8,2.4c-2.4,1.4-2.8,2.8-1.9,4.3c0.4,0.6,1.1,1,1.9,1c0.8,0.1,1.7-0.1,2.4-0.5C711.1,805.2,711.7,804.4,712.2,803.5
			L712.2,803.5z"/>
		<path class="st0" d="M733.6,769.2l10,14.7c2.4,3.3,2.8,6.2,2.4,9s-2.4,5.2-5.7,7.6c-1.9,1-3.3,1.9-5.2,2.8c-1.7,0.6-3.4,0.9-5.2,1
			l-0.5-5.2c1.3,0,2.6-0.1,3.8-0.5c1.4-0.3,2.7-1,3.8-1.9c1.9-1.4,2.9-2.4,3.3-3.8s0-2.8-1.4-4.8l-0.5-1c-0.5,2.4-1.9,4.3-4.3,6.2
			c-1.5,1.1-3.3,1.8-5.2,1.9c-1.9,0-3.8,0-5.2-1s-3.3-1.9-4.3-3.8s-1.9-3.3-1.9-5.2c0-1.8,0.5-3.7,1.4-5.2c1-1.7,2.3-3.1,3.8-4.3
			c2.1-1.8,5-2.4,7.6-1.4l-1.4-2.4L733.6,769.2z M735,785.4c0.4-1.5,0-3.1-1-4.3c-0.8-1.2-2-2-3.3-2.4c-1.5-0.1-3,0.2-4.3,1
			c-1.4,1-2.4,1.9-2.4,3.3c-0.4,1.5,0,3.1,1,4.3c0.8,1.2,2,2,3.3,2.4c1.5,0.1,3-0.2,4.3-1C734.1,787.8,735,786.8,735,785.4z"/>
		<path class="st0" d="M762.6,763.5l-12.8,10c2.2,1.9,5.4,1.9,7.6,0c0.9-0.6,1.5-1.4,1.9-2.4c0.5-0.9,0.9-1.8,1-2.8l4.8,1
			c0,2.9-1.9,5.7-4.8,8.1c-1.8,1.4-3.9,2.4-6.2,2.8c-1.9,0.3-3.9,0.1-5.7-0.5c-1.9-0.5-3.3-1.9-4.8-3.8c-1.2-1.5-2-3.3-2.4-5.2
			c-0.4-2,0-4,1-5.7c0.8-1.9,2.2-3.5,3.8-4.8c1.5-1.2,3.3-2,5.2-2.4c1.9-0.3,3.9-0.1,5.7,0.5c1.9,0.8,3.5,2.1,4.8,3.8
			C762.1,762.6,762.4,763.1,762.6,763.5z M746.9,766.9c-0.5,1.4,0,2.4,0.5,3.8l8.6-6.7c-0.8-0.9-2.1-1.5-3.3-1.4
			c-1.2,0-2.3,0.4-3.3,1C747.9,764.5,746.9,765.5,746.9,766.9z"/>
		<path class="st0" d="M784.5,729.8c2.4,0,4.3,1.4,6.7,3.8l8.1,9l-4.8,4.3l-7.6-8.6c-0.7-1.1-2-1.9-3.3-1.9c-1.2-0.1-2.4,0.3-3.3,1
			c-1.9,1.8-1.9,4.8-0.1,6.6c0.2,0.2,0.4,0.4,0.6,0.5l7.1,8.1l-4.8,4.3l-7.6-8.6c-2.4-2.4-4.3-2.8-6.7-1c-0.9,0.8-1.5,2.1-1.4,3.3
			c0,1.4,0.5,2.4,1.9,3.8l7.1,8.1l-4.8,4.3l-14.7-16.2l4.3-3.8l1.9,1.9c0-1.2,0.4-2.3,1-3.3c0.6-1.2,1.4-2.3,2.4-3.3
			c1-1.1,2.3-1.8,3.8-1.9c1.2-0.5,2.6-0.5,3.8,0c-0.1-1.5,0.2-3,1-4.3c0.5-1.4,1.4-2.4,2.8-3.8C780.2,730.7,782.1,729.8,784.5,729.8
			z"/>
		<path class="st0" d="M812,716l-11.4,11.9c1.2,0.7,2.5,0.8,3.8,0.5c1.5-0.4,2.8-1.3,3.8-2.4c0.8-0.7,1.4-1.5,1.9-2.4
			c0.4-0.9,0.6-1.9,0.5-2.8h4.8c0.5,2.8-1,6.2-3.3,9c-1.5,1.6-3.3,2.9-5.2,3.8c-1.8,0.9-3.8,1-5.7,0.5c-2-0.5-3.8-1.4-5.2-2.8
			c-1.4-1.6-2.5-3.3-3.3-5.2c-0.5-1.9-0.5-3.8,0-5.7c0.5-2,1.5-3.8,2.8-5.2c1.3-1.4,3-2.5,4.8-3.3c1.8-0.6,3.8-0.8,5.7-0.5
			c2,0.5,3.8,1.5,5.2,2.8C811.1,715,811.1,715.5,812,716z M796.8,722.2c0,1.3,0.5,2.5,1.4,3.3l7.1-7.6c-1-1-2.4-1-3.8-1
			s-2.4,1-3.3,1.9C797.3,719.7,796.8,720.9,796.8,722.2L796.8,722.2z"/>
		<path class="st0" d="M819.7,690.8c2.4-0.5,4.8,0.5,7.1,2.8l9.5,8.1l-3.8,4.8l-8.6-7.1c-1.1-0.9-2.4-1.4-3.8-1.4
			c-1.3,0-2.4,0.7-2.8,1.9c-0.9,1.1-1.4,2.4-1.4,3.8c0.1,1.6,1,3,2.4,3.8l8.1,6.7l-3.8,4.8l-16.6-13.8l3.8-4.8l1.9,1.4
			c-0.1-1.3,0.1-2.6,0.5-3.8c0.4-1.4,1.1-2.6,1.9-3.8C815.4,692.2,817.3,690.8,819.7,690.8z"/>
		<path class="st0" d="M847.2,684.6c0.1,0.8-0.1,1.6-0.5,2.4c-0.4,0.9-0.9,1.7-1.4,2.4c-1.3,1.8-3.1,3.2-5.2,3.8
			c-1.9,0.5-3.8,0-5.7-1.9l-7.1-5.2l-1.9,2.8l-3.8-2.8l1.9-2.8l-4.3-3.3l3.8-5.2l4.3,3.3l3.3-4.3l3.8,2.8l-3.3,4.3l7.1,5.2
			c1,0.5,1.4,1,1.9,0.5s1.4-0.5,1.9-1c0.5-1,1-1.4,1-2.4L847.2,684.6z"/>
		<path class="st0" d="M159.8,716c-0.5-1.9-0.5-3.8,0-5.7c0.5-1.9,1.9-3.3,3.3-4.8c1.5-1.4,3.3-2.4,5.2-2.8c1.9-0.3,3.9-0.1,5.7,0.5
			c2,0.8,3.8,2.1,5.2,3.8c1.3,1.5,2.3,3.3,2.9,5.2c0.3,1.9,0.2,3.9-0.5,5.7l-5.2-1.9c1-2.4,0.5-3.8-0.9-5.7c-0.8-1.3-2.3-2-3.8-1.9
			c-1.6,0-3.2,0.7-4.3,1.9c-2.6,1.9-3.2,5.6-1.2,8.2c0.1,0.1,0.2,0.2,0.3,0.4c1.4,1.4,3.3,2.4,5.2,1.4l1.4,5.2
			c-1.7,0.5-3.5,0.5-5.2,0c-1.9-0.5-3.3-1.9-5.2-3.3C161.3,720.3,160.4,718.2,159.8,716z"/>
		<path class="st0" d="M175.9,733.6c-0.5-1.9-0.5-3.8,0-5.7c0.5-2,1.5-3.8,2.9-5.2c1.5-1.4,3.3-2.4,5.2-2.8c1.9-0.5,3.8-0.5,5.7,0
			c4,1.4,7.1,4.6,8.6,8.6c0.5,1.9,0.5,3.8,0,5.7c-0.5,2-1.5,3.8-2.9,5.2c-1.5,1.4-3.3,2.4-5.2,2.8c-1.9,0.5-3.8,0.5-5.7,0
			c-2-0.6-3.8-1.8-5.2-3.3C177.6,737.5,176.4,735.7,175.9,733.6z M186.9,736.9c3.3-0.2,6-2.8,6.2-6.2c0-1.4-0.5-2.8-1.4-3.8
			c-1-1.1-2.3-1.8-3.8-1.9c-3.3,0.2-6,2.8-6.2,6.2c0,1.4,0.5,2.7,1.4,3.8C183.8,736.4,185.3,737.1,186.9,736.9z"/>
		<path class="st0" d="M230.1,758.3c-0.1,2.6-1.1,5.2-2.9,7.1l-8.1,9.5l-4.8-4.3l7.6-8.6c0.9-1.4,1.9-2.4,1.9-3.8
			c-0.1-1.1-0.6-2.1-1.4-2.8c-1-1-2.4-1.4-3.8-1c-1.4,0-2.4,1-3.8,2.4l-7.1,8.1l-4.8-4.3l7.6-8.6c2.4-2.4,2.4-4.8,0-6.7
			c-0.8-1-2.1-1.4-3.3-1c-1.4,0-2.4,1-3.8,2.4l-7.1,8.1l-4.8-4.3l14.3-16.6l4.8,3.8l-1.4,1.9c1.3-0.1,2.6,0.1,3.8,0.5
			c1.3,0.3,2.4,1,3.3,1.9c1,0.9,1.9,2,2.4,3.3c0.5,1.4,1,2.4,0.5,3.8c1.4-0.5,2.9,0,4.3,0c1.5,0.3,2.9,1.2,3.8,2.4
			C228.6,753.7,229.6,756,230.1,758.3z"/>
		<path class="st0" d="M263.9,782.6c0.5,2.4-0.5,4.8-2.4,7.1l-7.1,10l-5.2-3.8l6.6-9.5c0.8-1.1,1.3-2.4,1.4-3.8c0-1-0.5-1.9-1.9-2.9
			c-1.1-0.8-2.5-1.1-3.8-1c-1.4,0.5-2.6,1.5-3.3,2.8l-6.2,9l-5.2-3.8l6.6-9.5c1.9-2.9,1.9-4.8-0.5-6.7c-0.9-1-2.4-1-3.8-1
			c-1.4,0.5-2.6,1.5-3.3,2.8l-6.2,9l-5.2-3.8l12.4-17.6l4.8,3.3l-1.4,1.9c1.2-0.5,2.6-0.5,3.8,0c1.1,0.4,2.3,0.9,3.3,1.4
			c1.3,0.7,2.3,1.9,2.9,3.3c0.5,1.2,0.8,2.6,0.9,3.9c1.4-0.5,2.9-0.5,4.3,0c1.5,0.4,2.9,1.1,4.3,1.9
			C262,778.3,263.4,780.2,263.9,782.6z"/>
		<path class="st0" d="M290,795.9l-10.9,18.5l-5.2-2.8l1.4-2.4c-1.2,0.4-2.5,0.6-3.8,0.5c-1.4,0-2.7-0.6-3.8-1.4
			c-2.2-1.3-3.9-3.3-4.8-5.7c-0.5-2.4,0-4.8,1.4-7.6l6.2-10.5l5.2,3.3l-5.7,9.5c-1.9,2.9-1.4,5.2,1,6.7c1.1,0.8,2.5,1,3.8,0.5
			c1.4-0.5,2.6-1.5,3.3-2.9l5.2-9L290,795.9z"/>
		<path class="st0" d="M311.4,808.7c1,2.4,0.5,4.8-1,7.6l-5.7,10.9l-5.7-2.9l5.2-10c0.8-1.1,1-2.5,0.5-3.8c-0.4-1.1-1.3-2-2.4-2.4
			c-1.4-0.5-2.9-1-3.8-0.5c-1.4,0.5-2.4,1.4-3.3,3.3l-4.8,9.5l-5.7-2.8l9.5-19.5l5.2,2.8l-1,2.4c1.2-0.4,2.5-0.6,3.8-0.5
			c1.3,0,2.6,0.4,3.8,1C308.5,804.7,310.4,806.5,311.4,808.7z"/>
		<path class="st0" d="M319.5,810.1l5.7,2.4l-8.6,20l-5.7-2.4L319.5,810.1z M321.4,806.8c-0.5-0.9-0.5-2,0-2.8
			c0.4-0.9,1.1-1.5,1.9-1.9c0.9-0.5,2-0.5,2.9,0c1,0.4,1.8,1,2.4,1.9c0.5,0.9,0.5,2,0,2.8c-0.4,0.8-1.1,1.5-1.9,1.9
			c-0.9,0.5-2,0.5-2.9,0C322.7,808.5,321.8,807.8,321.4,806.8L321.4,806.8z"/>
		<path class="st0" d="M326.6,835.8c-1.4-1.4-2.3-3.2-2.4-5.2c-0.3-1.9-0.2-3.9,0.5-5.7c1-1.9,1.9-3.8,3.3-4.8
			c1.5-1.1,3.3-1.8,5.2-1.9c1.9,0,4.3,0,6.2,1c1.9,0.8,3.7,2,5.2,3.3c1.3,1.4,2,3.3,1.9,5.2l-5.7,0.5c-0.5-2.4-1.4-3.8-3.3-4.8
			c-1.4-0.5-2.9-0.5-4.3,0c-1.4,0.5-2.4,1.9-3.3,3.3c-0.5,1.6-0.5,3.2,0,4.8c0.6,1.4,1.8,2.5,3.3,2.8c1.9,1,3.8,0.5,5.7-1l3.3,4.3
			c-1.3,1.2-3,2.1-4.8,2.4c-1.9,0.5-3.8,0-6.2-1C329.6,838.3,328,837.2,326.6,835.8z"/>
		<path class="st0" d="M367,830.6c1.4,1.9,1.4,4.8,0.5,7.6l-3.8,11.9l-5.7-1.9l1-2.4c-2,1.5-4.7,1.9-7.1,1c-1.4-0.5-2.7-1.3-3.8-2.4
			c-0.8-0.8-1.4-1.8-1.9-2.8c-0.5-1.1-0.5-2.3,0-3.3c0.5-1.9,1.9-3.3,3.8-3.8c2.4-0.5,4.8-0.4,7.1,0.5l4.8,1.4
			c0.5-1.1,0.5-2.3,0-3.3c-0.7-1.3-1.9-2.1-3.3-2.4c-2.2-0.6-4.5-0.6-6.7,0l-1-4.8c1.5-0.4,3.2-0.6,4.8-0.5c1.8,0.1,3.5,0.4,5.2,1
			C363.4,826.9,365.6,828.4,367,830.6z M357,843c1,0,1.9-1,2.4-1.4l0.5-1.9l-4.3-1.4c-2.4-1-3.8-0.5-4.3,1.4c-0.5,1,0,1.4,0.5,1.9
			c0.7,0.6,1.6,1.1,2.4,1.5L357,843z"/>
		<path class="st0" d="M383.2,854.4c-0.7,0.4-1.6,0.6-2.4,0.5c-1,0.1-2-0.1-2.9-0.5c-2.1-0.4-4-1.6-5.2-3.3c-1-1.4-1-3.8-0.5-6.2
			l2.4-8.6l-3.3-1l1.4-4.8l3.3,1l1.4-5.2l6.2,1.4l-1.4,5.2l5.2,1.4l-1.4,4.8l-5.2-1.4l-2.4,8.5c-0.5,1,0,1.4,0,2.4
			c0.5,0.6,1.2,1.1,1.9,1.4c1,0.5,1.9,0,2.9,0V854.4z"/>
		<path class="st0" d="M391.8,835.3l6.2,1.4l-4.8,20.9l-6.2-1.4L391.8,835.3z M393.2,831.5c-0.5-1-1-1.9-0.5-2.9
			c0.2-0.9,0.7-1.8,1.4-2.4c0.9-0.4,1.9-0.6,2.9-0.5c0.9,0.4,1.7,0.9,2.4,1.4c0.5,1,1,1.4,0.5,2.4c-0.4,0.9-0.8,1.7-1.4,2.4
			c-0.5,0.5-1.9,0.5-2.9,0.5C394.7,832.5,393.8,832.1,393.2,831.5L393.2,831.5z"/>
		<path class="st0" d="M421.7,854.4l-16.2-2.9c0,1.3,0.5,2.5,1.4,3.3c1.1,0.9,2.4,1.6,3.8,1.9h2.9c1-0.1,2-0.5,2.9-1l2.4,4.3
			c-2.4,1.9-5.7,2.4-9.5,1.9c-2.2-0.5-4.2-1.3-6.2-2.4c-1.7-1.1-2.8-2.8-3.3-4.8c-0.6-1.8-0.8-3.8-0.5-5.7c0.5-1.9,1.3-3.6,2.4-5.2
			c1.4-1.4,3-2.5,4.8-3.3c2-0.4,4.1-0.6,6.2-0.5c1.9,0.5,3.6,1.3,5.2,2.4c1.4,1.4,2.5,3,3.3,4.8c0.7,2,0.8,4.1,0.5,6.2
			C422.2,852.5,421.7,852.9,421.7,854.4z M408.4,844.4c-1.1,0.6-2,1.6-2.4,2.8l10.5,1.9c0-1.2-0.4-2.3-1-3.3
			c-0.9-0.9-2.1-1.6-3.3-1.9C410.9,843.8,409.6,844,408.4,844.4L408.4,844.4z"/>
		<path class="st0" d="M234.9,90.8l-0.5,4.3l3.3,4.3l-4.8,3.8l-17.6-23.3l4.8-3.8l10,13.3L232,77l5.7-4.3l-1.4,12.4l15.2,3.8
			l-6.2,4.3L234.9,90.8z"/>
		<path class="st0" d="M236.8,63.7l5.2-3.3l16.6,24.3l-5.2,3.4L236.8,63.7z"/>
		<path class="st0" d="M249.6,59.9c-1,0-1.9-0.5-2.4-1.4c-0.4-0.9-0.6-1.9-0.5-2.8c0.4-1,1-1.8,1.9-2.4c0.9-0.5,1.9-1,2.9-0.5
			c1,0,1.4,0.5,2.4,1.4c0.5,1,1,1.9,0.5,2.8c-0.2,1.1-0.9,2-1.9,2.4C251.5,59.9,250.6,60.4,249.6,59.9z M251.5,63.7l5.2-3.3
			L268.1,78l-5.2,3.3L251.5,63.7z"/>
		<path class="st0" d="M292.4,41.8c1.9,0.5,3.8,2.4,5.2,4.8l5.7,10.5l-5.2,2.9l-5.2-10c-0.7-1.2-1.7-2.1-2.9-2.8
			c-1-0.5-1.9-0.5-3.3,0.5c-1.4,0.5-1.9,1.9-2.4,2.9c-0.4,1.5,0,3.1,1,4.3l5.2,9.5l-5.2,2.8L280,57c-1.4-2.8-3.8-3.8-5.7-2.4
			c-1.4,0.5-1.9,1.4-2.4,2.9c-0.4,1.5,0,3.1,1,4.3l5.2,9.5l-5.2,2.8l-10.5-18.5l5.2-2.9l1,1.9c0.5-1,1-2.4,1.4-3.3
			c0.8-0.9,1.8-1.7,2.8-2.4c1.4-1,2.9-1,3.8-1.4c1.3-0.1,2.7,0.2,3.8,1c0-1.4,1-2.8,1.4-3.8c1-1,1.9-2.4,3.3-2.8
			C288.1,41.8,290,41.4,292.4,41.8z"/>
		<path class="st0" d="M315.2,31.4c2.4,0.5,3.8,2.4,5.2,5.2l5.2,10.9l-5.2,2.4l-1-2.4c0,2.4-1.9,4.3-4.8,5.2c-1.4,0.5-2.8,0.9-4.3,1
			c-1.2,0-2.3-0.4-3.3-1c-1-0.5-1.8-1.4-2.4-2.4c-1-1.6-1-3.6,0-5.2c1.4-2,3.4-3.5,5.7-4.3l4.3-1.9c-0.4-1.1-1.3-2-2.4-2.4
			c-1-0.5-2.4,0-3.8,0.5c-1.1,0.5-2,1.1-2.9,1.9c-0.8,0.7-1.4,1.5-1.9,2.4l-3.8-2.9c0.5-1.4,1.9-2.4,2.9-3.3l4.3-2.8
			C309.6,31.1,312.5,30.8,315.2,31.4z M316.2,47.1c0.5-1,1-1.9,0.5-2.8l-1-1.9l-3.8,1.9c-2.4,1-2.9,2.4-2.4,3.8c0.5,1,1,1,1.4,1.4
			c0.8,0.1,1.7-0.1,2.4-0.5C314.4,48.5,315.4,47.9,316.2,47.1L316.2,47.1z"/>
		<path class="st0" d="M338,21.9c2.4,1,3.8,2.9,5.2,5.7l4.3,11.4l-5.2,1.9l-1-2.4c-0.5,2.4-1.9,3.8-4.8,5.2c-1.4,0.5-2.8,0.9-4.3,1
			c-1.2,0-2.3-0.4-3.3-1c-1-0.5-1.4-1.4-1.9-2.8c-1-1.9-0.5-3.3,0.5-5.2c1-1.4,2.9-2.9,5.7-4.3l4.8-1.9c-0.4-1.1-1.3-2-2.4-2.4
			c-1.3-0.5-2.7-0.4-3.8,0.5c-1.1,0.5-2,1.1-2.9,1.9c-0.8,0.7-1.4,1.5-1.9,2.4l-3.8-3.3c1-1.2,2.1-2.3,3.3-3.3
			c1.3-1,2.8-1.8,4.3-2.4C333.1,21.6,335.6,21.3,338,21.9z M338.5,37.6c0.6-0.8,0.9-1.8,1-2.8l-1-1.9l-3.8,1.4
			c-2.4,1-3.3,2.4-2.9,3.8c0.5,1,1,1.4,1.4,1.4c1,0,1.9-0.1,2.9-0.5C337.1,39,338,38,338.5,37.6L338.5,37.6z"/>
		<path class="st0" d="M365.1,31.9c-0.5,0.6-1.2,1.1-1.9,1.4c-1,0.5-1.4,1-2.4,1.4c-1.9,1-4.2,1-6.2,0c-1.9-1-2.9-2.4-3.8-4.8
			l-2.9-8.1l-3.3,1l-1.4-4.3l3.3-1l-1.4-4.8l5.7-1.9l1.4,4.8l5.2-1.9l1.5,4.3l-5.3,1.9l2.9,8.1c0.4,0.7,0.8,1.4,1.4,1.9
			c0.5,0.5,1.4,0.5,1.9,0c0.7-0.4,1.4-0.8,1.9-1.4L365.1,31.9z"/>
		<path class="st0" d="M71.8,555.8l22.8,1.9l1.9,6.2l-17.1,15.2l-1.9-6.2l11.9-10l-15.7-1.4L71.8,555.8z"/>
		<path class="st0" d="M68.9,537.2c1.3-2.3,3.6-3.8,6.2-4.2l11.9-3.4l1.4,5.7l-2.4,0.5c2.4,0.5,3.8,2.4,4.8,5.2
			c0.4,1.4,0.5,2.8,0.5,4.3c0,1.4-1,2.4-1.4,3.3c-0.8,0.8-1.8,1.4-2.9,1.9c-1.8,0.4-3.7,0.1-5.2-1c-1.4-1-2.8-3.3-3.3-6.2l-1.5-4.8
			c-1.4,0.5-2.4,1-2.8,1.9c-0.5,1.2-0.5,2.6,0,3.8c0.5,1,1,1.9,1.4,2.9c0.5,0.9,1.2,1.7,1.9,2.4l-3.3,3.3c-1.1-1-2-2.1-2.8-3.3
			c-0.9-1.5-1.6-3.1-1.9-4.8C67.5,542,67.5,539.1,68.9,537.2z M84.2,538.2c-0.6-0.6-1.5-1-2.4-1l-1.9,0.5l0.9,4.3
			c0.5,2.4,1.9,3.3,3.3,2.8c0.7,0.1,1.3-0.4,1.4-1.1c0-0.1,0-0.2,0-0.3c0.5-1,0.5-1.4,0-2.8C85.6,539.6,85.1,539.1,84.2,538.2
			L84.2,538.2z"/>
		<path class="st0" d="M63.2,512.5c1-1.9,3.3-3.3,6.2-3.8l11.9-2.4l1,5.7l-2.4,0.5c2.4,0.9,4,3.1,4.3,5.7c0.5,1.4,0.5,2.9,0,4.3
			c-0.3,1.3-1,2.4-1.9,3.3c-0.7,0.8-1.7,1.4-2.8,1.4c-1.9,0.5-3.9,0-5.2-1.4c-1.6-1.7-2.6-3.9-2.8-6.2l-1-4.8
			c-1.4,0.5-2.4,1-2.8,1.9c-0.4,1.2-0.6,2.5-0.5,3.8c0.1,1.2,0.6,2.4,1.4,3.3c0.5,0.9,1.2,1.7,1.9,2.4l-3.8,2.8
			c-1.1-1.2-2-2.5-2.8-3.8c-0.9-1.5-1.6-3.1-1.9-4.8C61.7,517.8,62.2,515.1,63.2,512.5z M78.9,514.9c-0.7-0.6-1.5-1.1-2.4-1.4
			l-1.9,0.5l1,4.3c0.5,2.4,1.4,3.3,3.3,3.3c0.7,0.1,1.3-0.4,1.4-1.1c0-0.1,0-0.2,0-0.4c0.5-0.5,0.5-1.4,0-2.9
			C80,516.4,79.5,515.6,78.9,514.9z"/>
		<path class="st0" d="M59,495.4c-1-1.2-1.5-2.7-1.4-4.3l5.7-1v1.4c0.2,1.4,0.9,2.8,1.9,3.8c1,1,2.9,1,4.8,1l10-1.4l0.9,6.2l-21,3.3
			l-0.9-5.7l2.9-0.5C60.5,497.8,59.4,496.8,59,495.4z"/>
		<path class="st0" d="M47.1,466.9l29-2.9l0.5,5.7l-2.4,0.5c2.1,1.4,3.3,3.7,3.3,6.2c0.1,2-0.2,3.9-1,5.7c-0.7,1.7-1.9,3.2-3.3,4.3
			c-1.7,1.2-3.7,1.9-5.7,1.9c-2.4,0-4.3,0-5.7-1c-1.7-0.7-3.1-1.9-4.2-3.3c-1.1-1.5-1.8-3.3-1.9-5.2c-0.4-2.4,0.3-4.8,1.9-6.6l-10,1
			L47.1,466.9z M70.4,471.6c-1.2-1-2.8-1.4-4.3-1c-1.6,0-3.2,0.7-4.3,1.9c-1,1-1.4,2.5-1,3.8c0.1,1.5,0.8,2.8,1.9,3.8
			c1.2,1,2.8,1.4,4.3,1c1.4-0.5,3.3-1,4.3-1.9c1-1,1.4-2.5,1-3.8C72.1,474,71.5,472.6,70.4,471.6z"/>
		<path class="st0" d="M50.4,459.3c-0.5,1-1.4,1-2.4,1.4c-0.9,0-1.7-0.4-2.4-1c-0.7-0.8-1-1.8-1-2.9c0-1.4,0-1.9,1-2.9
			c0.5-1,1.4-1,2.4-1.4c0.9,0,1.7,0.4,2.4,1c0.7,0.8,1,1.8,1,2.9C51.3,457.8,51.3,458.8,50.4,459.3z M54.7,459.3l-0.5-6.2l20.9-1.4
			l0.5,6.2L54.7,459.3z"/>
		<path class="st0" d="M53.2,425h17.6c3.8,0,6.7,1,8.6,2.9s2.8,4.8,2.8,9c0.1,1.9-0.1,3.8-0.5,5.7c-0.3,1.7-1,3.3-1.9,4.8l-4.3-2.3
			c0.9-0.9,1.6-2.1,1.9-3.3c0.4-1.4,0.6-2.8,0.5-4.3c0-1.9-0.5-3.8-1.4-4.8c-1.2-1-2.7-1.6-4.3-1.4h-1c1.9,1.4,2.9,3.8,2.9,6.7
			c0,1.8-0.5,3.7-1.4,5.2c-0.8,1.5-2,2.8-3.3,3.8c-3.2,1.9-7.2,1.9-10.5,0c-1.5-1-2.8-2.3-3.8-3.8c-2.3-4-1.8-9,1.4-12.4h-2.9
			L53.2,425z M67,432.6c-2.1-2.4-5.8-2.7-8.2-0.6s-2.7,5.8-0.6,8.2c2.1,2.4,5.8,2.7,8.2,0.6c1.3-1.1,2-2.7,2-4.4
			C68.5,435,68,433.7,67,432.6z"/>
		<path class="st0" d="M56.6,399.4c1.4-1.4,3.8-2.4,7.1-1.9l11.9,0.5l-0.5,6.2l-10.9-0.5c-1.9,0-2.8,0-3.8,1c-1,0.5-1.4,1.9-1.4,3.3
			c0,1.4,0.5,2.8,1.4,3.8c1.2,1,2.7,1.5,4.3,1.4l10.5,0.5l-0.5,6.2l-29-1.4l0.5-6.2l10,0.5c-0.8-0.8-1.4-1.8-1.9-2.9
			c-0.4-1.2-0.6-2.5-0.5-3.8C54,403.6,55,401.3,56.6,399.4z"/>
		<path class="st0" d="M69.9,370.8L68,386.5c1.4,0.1,2.7-0.7,3.3-1.9c1-1,1.5-2.4,1.4-3.8V378c0-1-0.5-1.9-1.4-2.4l3.8-2.9
			c2,2.5,2.9,5.8,2.4,9c-0.3,2.2-1,4.3-1.9,6.2c-0.9,1.7-2.4,3.1-4.3,3.8c-1.8,0.8-3.8,1.1-5.7,1c-1.9-0.1-3.7-0.8-5.2-1.9
			c-1.5-1.1-2.7-2.6-3.3-4.3c-0.8-1.8-1.1-3.8-1-5.7c0.1-1.9,0.8-3.7,1.9-5.2c1-1.6,2.5-2.8,4.3-3.3c1.8-0.8,3.8-1.1,5.7-1
			C68.5,370.8,68.9,370.8,69.9,370.8z M61.3,384.6c0.6,1,1.7,1.7,2.9,1.9l0.9-10.5c-2.6,0.1-4.7,2.2-4.8,4.8
			C60.4,382.1,60.7,383.4,61.3,384.6z"/>
		<path class="st0" d="M54.2,341.8l28.5,5.2l-1,5.7l-2.4-0.5c1.5,2.1,2,4.7,1.4,7.1c-0.5,1.9-0.9,3.8-2.4,5.2
			c-1.1,1.4-2.6,2.4-4.3,2.9c-1.8,0.6-3.8,0.8-5.7,0.5c-2.4-0.5-3.8-1-5.2-2.4c-1.3-1.3-2.4-2.7-3.3-4.3c-0.6-1.8-0.8-3.8-0.5-5.7
			c0.2-2.4,1.7-4.5,3.8-5.7l-10-1.9L54.2,341.8z M75.6,353.2c-0.9-1.2-2.3-2.1-3.8-2.4c-1.5-0.5-3.1-0.1-4.3,1c-1.2,0.8-2,2-2.4,3.3
			c-0.4,1.5,0,3.1,1,4.3c0.9,1.2,2.3,2.1,3.8,2.4c1.5,0.5,3.1,0.1,4.3-1c1.2-0.8,2-2,2.4-3.3C76.5,356.1,76.1,354.6,75.6,353.2z"/>
		<path class="st0" d="M80.3,320l-3.8,15.7c1.3,0,2.5-0.5,3.3-1.4c1.2-0.9,1.9-2.3,1.9-3.8c0.5-0.9,0.5-2,0-2.9c-0.1-1-0.5-2-1-2.9
			l4.3-2.4c1.9,2.4,2.4,5.7,1.4,9.5c-0.4,2.1-1.4,4.1-2.8,5.7c-1.4,1.4-2.9,2.9-4.8,3.3c-1.9,0.5-3.8,0.5-5.7,0
			c-2-0.5-3.7-1.5-5.2-2.9c-1.4-1.3-2.4-2.9-2.9-4.8c-0.5-1.9-0.5-3.8,0-5.7c0.5-2,1.5-3.7,2.9-5.2c1.3-1.4,2.9-2.4,4.8-2.9
			c2-0.5,4.1-0.5,6.2,0C79.4,319.6,79.9,319.7,80.3,320z M70.3,332.4c0.6,1.1,1.6,2,2.9,2.4l2.4-10c-1.4,0-2.4,0-3.3,1
			c-0.8,0.8-1.4,1.8-1.9,2.9C69.4,330,69.9,330.9,70.3,332.4L70.3,332.4z"/>
		<path class="st0" d="M77,294.3c1.9-1,4.3-1,7.6-0.5l11.4,3.3l-1.9,5.7l-10.5-3.3c-1.2-0.5-2.6-0.5-3.8,0c-1.1,0.5-1.9,1.6-1.9,2.9
			c-0.5,1.4-0.5,2.9,0.5,3.8c0.9,1.3,2.3,2.1,3.8,2.4l10,2.9l-1.9,5.7l-20.4-6.2l1.9-5.7l2.4,1c-0.6-1-0.9-2.2-1-3.3
			c-0.1-1.3,0.1-2.6,0.5-3.8C73.8,297,75.1,295.1,77,294.3z"/>
		<path class="st0" d="M34.7,523.9l3.8,2.4l5.7-1l1.4,6.6l-31.4,6.2l-1.4-6.7l17.6-3.8l-10.9-7.6l-1.4-8.1l11.4,7.6l10.9-12.8
			l1.4,8.1L34.7,523.9z"/>
		<path class="st0" d="M27.1,484l2.4,17.6c1.4-0.4,2.4-1.5,2.8-2.9c0.6-1.5,0.8-3.1,0.5-4.7c0-1.2-0.4-2.3-1-3.3
			c-0.5-0.9-1.1-1.7-1.9-2.4l3.3-4.3c2.8,1.9,4.3,4.8,5.2,9c0.3,2.4,0.2,4.8-0.5,7.1c-0.8,1.9-1.9,3.7-3.3,5.2
			c-1.6,1.5-3.6,2.3-5.7,2.4c-2.1,0.4-4.3,0.1-6.2-1c-1.9-1-3.8-1.9-4.8-3.8c-1.3-1.8-2.1-4-2.4-6.2c-0.3-2.1-0.2-4.2,0.5-6.2
			c0.5-1.9,1.7-3.6,3.3-4.8c1.4-1.4,3.8-1.9,6.2-2.4C25.7,484.5,26.1,484.5,27.1,484z M22.4,501.1c1,1,2.4,1.5,3.8,1.4l-1.4-11.4
			c-1.3,0.5-2.4,1.3-3.3,2.4c-1,1-1,2.4-1,3.8C20.6,498.8,21.3,500.1,22.4,501.1L22.4,501.1z"/>
		<path class="st0" d="M13.8,459.3c1.4-1.9,4.3-2.9,7.6-3.3l13.3-0.9l0.5,6.7l-12.4,1c-1.9,0-3.3,0.5-3.8,1.4
			c-1.1,0.9-1.5,2.5-1,3.8c0,1.5,0.7,2.9,1.9,3.8c1.3,1.1,3.1,1.4,4.8,1l11.4-1l0.5,6.7l-23.3,1.9l-0.5-6.2h2.9
			c-1.1-0.9-1.9-2-2.4-3.3c-0.6-1.4-0.9-2.8-1-4.3C11.5,463.9,12.1,461.2,13.8,459.3z"/>
		<path class="st0" d="M12.8,428.4c2-2,4.8-3,7.6-2.9h13.3v6.7H21.4c-1.6-0.1-3.1,0.4-4.3,1.4c-0.9,0.8-1.5,2.1-1.4,3.3
			c-0.1,1.4,0.4,2.8,1.4,3.8c1,1,2.9,1.4,4.8,1.4h11.4v6.7L10,449.3v-6.7h2.9c-1.1-0.9-1.9-2-2.4-3.3c-0.6-1.4-0.9-2.8-1-4.3
			C10.3,432.7,11.4,430.4,12.8,428.4z"/>
		<path class="st0" d="M6.7,418.4c-1,1-1.4,1-2.9,1c-1.1-0.1-2.1-0.6-2.8-1.4c-0.5-0.9-0.9-1.8-1-2.9c0-1,0.3-2.1,1-2.9
			c1-1,1.4-1,2.8-1c1.1,0.1,2.1,0.6,2.9,1.4c0.7,0.7,1.1,1.8,1,2.9C7.6,416.5,7.2,417.5,6.7,418.4z M10.9,418.9v-6.7l23.3,1v6.7
			L10.9,418.9z"/>
		<path class="st0" d="M34.2,404.1c-0.5,1.5-1.1,2.9-1.9,4.3l-4.8-2.4c0.9-1.1,1.6-2.4,1.9-3.8c0.5-1.4,0.9-2.8,1-4.3
			c0-2.9-0.5-4.3-1.9-4.3c-0.5,0-1,0.5-1.4,1c-0.4,1.1-0.7,2.2-1,3.3c-0.5,1.9-1,3.3-1.4,4.8c-0.4,1.2-1.2,2.3-2.4,2.9
			c-1.1,1.1-2.8,1.4-4.3,1c-1.4,0-2.8-0.5-3.8-1.4c-1.1-1.1-1.9-2.4-2.4-3.8c-0.4-1.9-0.6-3.8-0.5-5.7c0.1-1.6,0.4-3.2,0.9-4.8
			c0.3-1.4,1-2.7,1.9-3.8l4.8,2.4c-1.4,1.9-1.9,4.3-2.4,6.7c-0.1,1.1,0.1,2.3,0.5,3.3c0.5,1,1,1,1.4,1c1,0,1.4-0.5,1.4-1
			c0.4-1.2,0.8-2.5,1-3.8c0.5-1.9,1-3.3,1.4-4.8c0.5-1,1-2.4,2.4-2.9c1-1,2.4-1,4.3-1c1.4,0,2.8,0.5,3.8,1.4
			c1.1,1.1,1.9,2.4,2.4,3.8c0.4,1.9,0.6,3.8,0.5,5.7C35.2,400.3,35.2,402.2,34.2,404.1z"/>
		<path class="st0" d="M30.9,350.9l-2.4,17.6c1.5,0.1,3-0.6,3.8-1.9c1-1.2,1.7-2.7,1.9-4.3V359c-0.1-1.1-0.6-2.1-1.4-2.9l4.3-2.9
			c2.4,2.4,2.9,5.7,2.4,10c-0.5,2.3-1.3,4.6-2.4,6.7c-1.4,1.9-2.8,3.3-4.8,3.8c-1.9,1-4.3,1-6.2,1c-2.4-0.5-4.3-1-5.7-2.4
			c-1.6-1.4-2.9-3.2-3.8-5.2c-0.9-2.1-1-4.4-0.5-6.7c0.5-2.4,1-4.3,2.4-5.7c1.2-1.7,2.9-3,4.8-3.8c2.1-0.9,4.5-1.1,6.7-0.5
			C29.5,350.9,30,350.9,30.9,350.9z M21.4,365.6c0.8,1.2,2,2,3.3,2.4l1.4-11.4c-1.4,0-2.8,0.5-3.8,1.4c-1,1-1.7,2.4-1.9,3.8
			C20.3,363.2,20.6,364.5,21.4,365.6z"/>
		<path class="st0" d="M25.2,323.3c1.9-1.4,4.8-1.9,8.1-1l12.8,2.9l-1.4,6.6l-11.9-2.4c-1.9-0.5-3.3-0.5-4.3,0.5
			c-1.3,0.6-2,1.9-1.9,3.3c-0.3,1.4-0.2,3,0.5,4.3c1,1.4,2.4,1.9,4.3,2.4l11.4,2.4l-1.4,6.7l-22.8-4.8L20,338l2.9,0.5
			c-1-1-1.5-2.4-1.4-3.8c-0.5-1.4,0-2.9,0-4.3C21.9,326.6,23.3,324.7,25.2,323.3z"/>
	</g>
</g>
</svg>
